<?xml version="1.0" encoding="UTF-8" standalone="no"?>
<!DOCTYPE svg PUBLIC "-//W3C//DTD SVG 1.1//EN" "http://www.w3.org/Graphics/SVG/1.1/DTD/svg11.dtd">
<svg width="100%" height="100%" viewBox="0 0 66 66" version="1.1" xmlns="http://www.w3.org/2000/svg" xmlns:xlink="http://www.w3.org/1999/xlink" xml:space="preserve" xmlns:serif="http://www.serif.com/" style="fill-rule:evenodd;clip-rule:evenodd;stroke-linecap:round;stroke-linejoin:round;stroke-miterlimit:1.5;">
    <g transform="matrix(1,0,0,1,-19,1)">
        <g id="icon-frame" transform="matrix(1.06522,0,0,1.06522,-107.371,-21.7009)">
            <g transform="matrix(0.938452,0,0,0.939685,102.681,3.40151)">
                <rect x="20" y="20" width="60" height="60" style="fill:rgb(0,112,255);fill-opacity:0.5;"/>
            </g>
            <g transform="matrix(1.00136,0,0,1.00136,99.5453,0.345034)">
                <rect x="20" y="20" width="60" height="60" style="fill:none;stroke:rgb(0,112,255);stroke-width:0.55px;"/>
            </g>
            <g transform="matrix(1.87755,0,0,1.87755,74.5113,18.0511)">
                <path d="M24,1.236L28,1.236L24,5.27L24,1.236Z" style="fill:rgb(0,112,255);"/>
            </g>
            <g transform="matrix(0.758075,0,0,0.757327,115.976,31.9849)">
                <path d="M74.093,60L80,60L80,54L84,54L84,64L74.093,64L74.093,60Z" style="fill:rgb(0,112,255);"/>
            </g>
        </g>
    </g>
</svg>
